ply
format ascii 1.0
comment Created by Blender 2.69 (sub 0) - www.blender.org, source file: ''
element vertex 741
property float x
property float y
property float z
property uchar red
property uchar green
property uchar blue
element face 968
property list uchar uint vertex_indices
end_header
0.468750 0.242187 0.757812 0 19 255
0.437500 0.164062 0.765625 0 19 255
0.500000 0.093750 0.687500 0 19 255
-0.500000 0.093750 0.687500 0 19 255
-0.437500 0.164062 0.765625 0 19 255
-0.468750 0.242187 0.757812 0 19 255
0.562500 0.242187 0.671875 255 255 255
0.500000 0.093750 0.687500 255 255 255
0.546875 0.054687 0.578125 255 255 255
-0.546875 0.054687 0.578125 255 255 255
-0.500000 0.093750 0.687500 255 255 255
-0.562500 0.242187 0.671875 255 255 255
0.351562 0.031250 0.718750 0 19 255
0.351562 -0.023438 0.617188 0 19 255
-0.351562 -0.023438 0.617188 255 255 255
-0.351562 0.031250 0.718750 255 255 255
0.351562 0.132812 0.781250 0 19 255
-0.351562 0.031250 0.718750 0 19 255
-0.351562 0.132812 0.781250 0 19 255
0.273438 0.164062 0.796875 0 19 255
0.203125 0.093750 0.742188 0 19 255
-0.203125 0.093750 0.742188 0 19 255
-0.273438 0.164062 0.796875 0 19 255
0.156250 0.054687 0.648438 0 19 255
-0.156250 0.054687 0.648438 255 255 255
-0.203125 0.093750 0.742188 255 255 255
0.203125 0.093750 0.742188 255 255 255
0.140625 0.242187 0.742188 255 255 255
0.156250 0.054687 0.648438 255 255 255
-0.078125 0.242187 0.656250 255 255 255
-0.140625 0.242187 0.742188 255 255 255
0.140625 0.242187 0.742188 0 19 255
-0.140625 0.242187 0.742188 0 19 255
0.242188 0.242187 0.796875 0 19 255
0.273438 0.328125 0.796875 0 19 255
0.203125 0.390625 0.742188 0 19 255
-0.203125 0.390625 0.742188 0 19 255
-0.273438 0.328125 0.796875 0 19 255
-0.242188 0.242187 0.796875 0 19 255
0.203125 0.390625 0.742188 255 255 255
0.078125 0.242187 0.656250 255 255 255
-0.156250 0.437500 0.648438 255 255 255
-0.203125 0.390625 0.742188 255 255 255
0.351562 0.453125 0.718750 255 255 255
0.156250 0.437500 0.648438 255 255 255
-0.351562 0.515625 0.617188 255 255 255
-0.351562 0.453125 0.718750 255 255 255
0.351562 0.359375 0.781250 0 19 255
-0.351562 0.453125 0.718750 0 19 255
-0.351562 0.359375 0.781250 0 19 255
0.437500 0.328125 0.765625 0 19 255
0.351562 0.453125 0.718750 0 19 255
-0.500000 0.390625 0.687500 0 19 255
-0.437500 0.328125 0.765625 0 19 255
0.500000 0.390625 0.687500 255 255 255
0.351562 0.515625 0.617188 255 255 255
-0.546875 0.437500 0.578125 255 255 255
-0.500000 0.390625 0.687500 255 255 255
0.500000 0.390625 0.687500 0 19 255
0.562500 0.242187 0.671875 0 19 255
0.546875 0.437500 0.578125 0 19 255
-0.625000 0.242187 0.562500 255 255 255
-0.562500 0.242187 0.671875 0 19 255
0.468750 0.242187 0.757812 255 255 255
0.437500 0.328125 0.765625 255 255 255
0.476562 0.242187 0.773438 255 255 255
-0.445312 0.335937 0.781250 255 255 255
-0.437500 0.328125 0.765625 255 255 255
-0.476562 0.242187 0.773438 255 255 255
0.445312 0.335937 0.781250 0 19 255
-0.351562 0.375000 0.804688 0 19 255
-0.445312 0.335937 0.781250 0 19 255
0.351562 0.359375 0.781250 255 255 255
0.273438 0.328125 0.796875 255 255 255
0.351562 0.375000 0.804688 255 255 255
-0.265625 0.335937 0.820312 0 19 255
0.242188 0.242187 0.796875 255 255 255
0.265625 0.335937 0.820312 255 255 255
-0.226562 0.242187 0.820312 255 255 255
-0.242188 0.242187 0.796875 255 255 255
-0.265625 0.335937 0.820312 255 255 255
0.273438 0.164062 0.796875 255 255 255
0.265625 0.156250 0.820312 255 255 255
-0.265625 0.156250 0.820312 255 255 255
-0.273438 0.164062 0.796875 255 255 255
0.351562 0.132812 0.781250 255 255 255
0.351562 0.117187 0.804688 255 255 255
-0.351562 0.117187 0.804688 255 255 255
-0.351562 0.132812 0.781250 255 255 255
0.437500 0.164062 0.765625 255 255 255
0.445312 0.156250 0.781250 255 255 255
-0.445312 0.156250 0.781250 255 255 255
-0.437500 0.164062 0.765625 255 255 255
-0.468750 0.242187 0.757812 255 255 255
0.351562 0.242187 0.828125 0 19 255
0.445312 0.156250 0.781250 0 19 255
0.476562 0.242187 0.773438 0 19 255
-0.476562 0.242187 0.773438 0 19 255
-0.445312 0.156250 0.781250 0 19 255
-0.351562 0.242187 0.828125 0 19 255
0.351562 0.117187 0.804688 0 19 255
-0.351562 0.117187 0.804688 0 19 255
0.265625 0.156250 0.820312 0 19 255
-0.265625 0.156250 0.820312 0 19 255
0.226562 0.242187 0.820312 0 19 255
-0.226562 0.242187 0.820312 0 19 255
0.265625 0.335937 0.820312 0 19 255
0.351562 0.375000 0.804688 0 19 255
0.179688 -0.968750 0.554687 0 19 255
0.164062 -0.929688 0.632812 0 19 255
0.000000 -0.984375 0.578125 0 19 255
0.000000 -0.945312 0.640625 0 19 255
-0.164062 -0.929688 0.632812 0 19 255
0.328125 -0.945312 0.523437 0 19 255
0.234375 -0.914062 0.632812 0 19 255
-0.234375 -0.914062 0.632812 0 19 255
-0.179688 -0.968750 0.554687 0 19 255
0.367188 -0.890625 0.531250 0 19 255
0.265625 -0.820312 0.664062 0 19 255
-0.265625 -0.820312 0.664062 0 19 255
-0.367188 -0.890625 0.531250 0 19 255
0.351562 -0.695312 0.570312 0 19 255
0.250000 -0.703125 0.687500 0 19 255
-0.250000 -0.703125 0.687500 0 19 255
-0.351562 -0.695312 0.570312 0 19 255
0.312500 -0.437500 0.570312 0 19 255
0.210938 -0.445313 0.710938 0 19 255
-0.210938 -0.445313 0.710938 0 19 255
-0.312500 -0.437500 0.570312 0 19 255
0.203125 -0.187500 0.562500 0 19 255
0.437500 -0.140625 0.531250 0 19 255
0.398438 -0.046875 0.671875 0 19 255
-0.398438 -0.046875 0.671875 0 19 255
-0.437500 -0.140625 0.531250 0 19 255
-0.203125 -0.187500 0.562500 0 19 255
0.632812 -0.039063 0.539062 0 19 255
-0.617188 0.054687 0.625000 0 19 255
-0.632812 -0.039063 0.539062 0 19 255
0.828125 0.148437 0.445312 0 19 255
0.726562 0.203125 0.601562 0 19 255
-0.726562 0.203125 0.601562 0 19 255
-0.828125 0.148437 0.445312 0 19 255
0.859375 0.429687 0.593750 0 19 255
-0.742188 0.375000 0.656250 0 19 255
-0.859375 0.429687 0.593750 0 19 255
0.710938 0.484375 0.625000 0 19 255
0.742188 0.375000 0.656250 0 19 255
-0.687500 0.414062 0.726562 0 19 255
-0.710938 0.484375 0.625000 0 19 255
0.492188 0.601562 0.687500 0 19 255
0.687500 0.414062 0.726562 0 19 255
-0.437500 0.546875 0.796875 0 19 255
-0.492188 0.601562 0.687500 0 19 255
0.320312 0.757812 0.734375 0 19 255
0.312500 0.640625 0.835938 0 19 255
-0.312500 0.640625 0.835938 0 19 255
-0.320312 0.757812 0.734375 0 19 255
0.156250 0.718750 0.757813 0 19 255
-0.203125 0.617187 0.851562 0 19 255
-0.156250 0.718750 0.757813 0 19 255
0.062500 0.492187 0.750000 0 19 255
0.203125 0.617187 0.851562 0 19 255
-0.101562 0.429687 0.843750 0 19 255
-0.062500 0.492187 0.750000 0 19 255
0.000000 0.429687 0.742188 0 19 255
0.101562 0.429687 0.843750 0 19 255
0.000000 0.351562 0.820312 0 19 255
0.164062 0.414062 0.773438 0 19 255
0.250000 0.468750 0.757812 0 19 255
-0.250000 0.468750 0.757812 0 19 255
0.328125 0.476562 0.742188 0 19 255
-0.328125 0.476562 0.742188 0 19 255
0.429688 0.437500 0.718750 0 19 255
0.437500 0.546875 0.796875 0 19 255
0.601562 0.375000 0.664062 0 19 255
-0.429688 0.437500 0.718750 0 19 255
0.640625 0.296875 0.648438 0 19 255
-0.601562 0.375000 0.664062 0 19 255
0.625000 0.187500 0.648438 0 19 255
-0.640625 0.296875 0.648438 0 19 255
0.492188 0.062500 0.671875 0 19 255
0.617188 0.054687 0.625000 0 19 255
-0.625000 0.187500 0.648438 0 19 255
0.375000 0.015625 0.703125 0 19 255
-0.492188 0.062500 0.671875 0 19 255
0.203125 0.093750 0.742188 0 19 255
0.125000 -0.101563 0.812500 0 19 255
-0.125000 -0.101563 0.812500 0 19 255
-0.375000 0.015625 0.703125 0 19 255
0.164062 0.140625 0.750000 0 19 255
0.000000 0.046875 0.726562 0 19 255
-0.164062 0.140625 0.750000 0 19 255
-0.203125 0.093750 0.742188 0 19 255
0.125000 0.304687 0.765625 0 19 255
-0.125000 0.304687 0.765625 0 19 255
0.000000 0.210937 0.765625 0 19 255
-0.132812 0.210937 0.757812 0 19 255
0.062500 -0.882813 0.695312 0 19 255
0.000000 -0.890625 0.687500 0 19 255
-0.062500 -0.882813 0.695312 0 19 255
0.117188 -0.835938 0.710937 0 19 255
-0.117188 -0.835938 0.710937 0 19 255
0.109375 -0.718750 0.734375 0 19 255
0.078125 -0.445313 0.750000 0 19 255
0.117188 -0.687500 0.734375 0 19 255
-0.117188 -0.687500 0.734375 0 19 255
-0.078125 -0.445313 0.750000 0 19 255
-0.109375 -0.718750 0.734375 0 19 255
0.085938 -0.289063 0.742188 0 19 255
0.000000 -0.328125 0.742188 0 19 255
0.000000 -0.445313 0.750000 0 19 255
0.000000 -0.679688 0.734375 0 19 255
0.000000 -0.765625 0.734375 0 19 255
0.125000 -0.226563 0.750000 255 255 255
0.132812 -0.226563 0.796875 255 255 255
0.093750 -0.273438 0.781250 255 255 255
-0.093750 -0.273438 0.781250 255 255 255
-0.132812 -0.226563 0.796875 255 255 255
-0.125000 -0.226563 0.750000 255 255 255
0.101562 -0.148438 0.742188 255 255 255
-0.101562 -0.148438 0.742188 255 255 255
0.000000 -0.140625 0.742188 0 19 255
0.039062 -0.125000 0.781250 0 19 255
0.101562 -0.148438 0.742188 0 19 255
-0.109375 -0.132813 0.781250 0 19 255
-0.039062 -0.125000 0.781250 0 19 255
-0.101562 -0.148438 0.742188 0 19 255
0.000000 -0.195313 0.750000 255 255 255
0.000000 -0.187500 0.796875 255 255 255
0.000000 -0.140625 0.742188 255 255 255
0.000000 -0.187500 0.796875 0 19 255
0.000000 -0.320313 0.781250 0 19 255
-0.093750 -0.273438 0.781250 0 19 255
-0.085938 -0.289063 0.742188 0 19 255
0.093750 -0.273438 0.781250 0 19 255
0.000000 -0.289063 0.804688 0 19 255
-0.078125 -0.250000 0.804688 0 19 255
0.000000 -0.203125 0.828125 0 19 255
0.046875 -0.148438 0.812500 0 19 255
-0.046875 -0.148438 0.812500 0 19 255
0.093750 -0.156250 0.812500 0 19 255
-0.093750 -0.156250 0.812500 0 19 255
0.109375 -0.132813 0.781250 0 19 255
0.132812 -0.226563 0.796875 0 19 255
-0.109375 -0.226563 0.828125 0 19 255
-0.132812 -0.226563 0.796875 0 19 255
0.109375 -0.226563 0.828125 0 19 255
0.078125 -0.250000 0.804688 0 19 255
0.125000 -0.226563 0.750000 0 19 255
0.164062 -0.242188 0.710938 0 19 255
-0.164062 -0.242188 0.710938 0 19 255
-0.125000 -0.226563 0.750000 0 19 255
-0.179688 -0.312500 0.710938 0 19 255
0.179688 -0.312500 0.710938 0 19 255
0.257812 -0.312500 0.554688 0 19 255
-0.257812 -0.312500 0.554688 0 19 255
0.234375 -0.250000 0.554688 0 19 255
-0.234375 -0.250000 0.554688 0 19 255
0.093750 -0.742188 0.726562 0 19 255
0.000000 -0.773438 0.718750 0 19 255
-0.093750 -0.742188 0.726562 0 19 255
0.093750 -0.820313 0.710937 0 19 255
-0.093750 -0.820313 0.710937 0 19 255
0.046875 -0.867188 0.687500 0 19 255
-0.046875 -0.867188 0.687500 0 19 255
0.000000 -0.875000 0.687500 0 19 255
0.000000 -0.859375 0.632812 0 19 255
-0.046875 -0.851562 0.632812 0 19 255
0.093750 -0.812500 0.640625 0 19 255
-0.093750 -0.812500 0.640625 0 19 255
0.093750 -0.820313 0.710937 255 255 255
0.093750 -0.742188 0.726562 255 255 255
0.093750 -0.750000 0.664062 255 255 255
-0.093750 -0.750000 0.664062 255 255 255
-0.093750 -0.742188 0.726562 255 255 255
-0.093750 -0.820313 0.710937 255 255 255
0.093750 -0.750000 0.664062 0 19 255
0.000000 -0.781250 0.656250 0 19 255
-0.093750 -0.750000 0.664062 0 19 255
0.046875 -0.851562 0.632812 0 19 255
0.132812 0.210937 0.757812 0 19 255
0.187500 0.156250 0.773438 0 19 255
-0.187500 0.156250 0.773438 0 19 255
0.171875 0.218750 0.781250 0 19 255
-0.171875 0.218750 0.781250 0 19 255
0.210938 0.375000 0.781250 0 19 255
-0.179688 0.296875 0.781250 0 19 255
-0.210938 0.375000 0.781250 0 19 255
-0.226562 0.109375 0.781250 0 19 255
0.375000 0.062500 0.742188 0 19 255
-0.375000 0.062500 0.742188 0 19 255
0.476562 0.101562 0.718750 0 19 255
-0.476562 0.101562 0.718750 0 19 255
0.578125 0.195312 0.679688 0 19 255
-0.578125 0.195312 0.679688 0 19 255
0.585938 0.289062 0.687500 0 19 255
-0.585938 0.289062 0.687500 0 19 255
-0.562500 0.351562 0.695312 0 19 255
0.562500 0.351562 0.695312 0 19 255
-0.421875 0.398437 0.773438 0 19 255
0.335938 0.429687 0.757812 0 19 255
-0.335938 0.429687 0.757812 0 19 255
0.273438 0.421875 0.773438 0 19 255
-0.273438 0.421875 0.773438 0 19 255
-0.164062 0.414062 0.773438 0 19 255
0.281250 0.398437 0.765625 0 19 255
-0.234375 0.359375 0.757812 0 19 255
-0.281250 0.398437 0.765625 0 19 255
0.421875 0.398437 0.773438 0 19 255
0.414062 0.390625 0.750000 0 19 255
-0.335938 0.406250 0.750000 0 19 255
-0.414062 0.390625 0.750000 0 19 255
0.531250 0.335937 0.679688 0 19 255
-0.531250 0.335937 0.679688 0 19 255
0.546875 0.210937 0.671875 0 19 255
-0.554688 0.281250 0.671875 0 19 255
-0.546875 0.210937 0.671875 0 19 255
0.375000 0.085937 0.726562 0 19 255
-0.460938 0.117187 0.703125 255 255 255
-0.476562 0.101562 0.718750 255 255 255
-0.375000 0.085937 0.726562 255 255 255
0.226562 0.109375 0.781250 0 19 255
0.242188 0.125000 0.757812 0 19 255
-0.375000 0.062500 0.742188 255 255 255
-0.242188 0.125000 0.757812 255 255 255
-0.242188 0.125000 0.757812 0 19 255
0.179688 0.296875 0.781250 0 19 255
0.195312 0.296875 0.757812 0 19 255
-0.195312 0.296875 0.757812 0 19 255
0.195312 0.226562 0.750000 0 19 255
-0.195312 0.226562 0.750000 0 19 255
0.203125 0.171875 0.750000 0 19 255
-0.203125 0.171875 0.750000 0 19 255
0.000000 0.429687 0.742188 255 255 255
0.062500 0.492187 0.750000 255 255 255
0.109375 0.460937 0.609375 255 255 255
-0.109375 0.460937 0.609375 0 19 255
0.156250 0.718750 0.757813 255 255 255
0.195312 0.664062 0.617188 255 255 255
-0.195312 0.664062 0.617188 0 19 255
0.195312 0.664062 0.617188 0 19 255
-0.335938 0.687500 0.593750 0 19 255
0.335938 0.687500 0.593750 0 19 255
-0.484375 0.554688 0.554688 0 19 255
0.484375 0.554688 0.554688 0 19 255
-0.679688 0.453125 0.492188 0 19 255
0.796875 0.406250 0.460938 0 19 255
-0.796875 0.406250 0.460938 0 19 255
0.859375 0.429687 0.593750 255 255 255
0.828125 0.148437 0.445312 255 255 255
0.796875 0.406250 0.460938 255 255 255
-0.773438 0.164062 0.375000 255 255 255
-0.828125 0.148437 0.445312 255 255 255
-0.796875 0.406250 0.460938 255 255 255
0.632812 -0.039063 0.539062 255 255 255
0.601562 -0.000000 0.414062 255 255 255
-0.601562 -0.000000 0.414062 255 255 255
-0.632812 -0.039063 0.539062 255 255 255
0.437500 -0.140625 0.531250 255 255 255
0.437500 -0.093750 0.468750 255 255 255
-0.437500 -0.093750 0.468750 255 255 255
-0.437500 -0.140625 0.531250 255 255 255
0.000000 -0.570312 0.320312 255 255 255
0.000000 -0.484375 0.281250 255 255 255
0.125000 -0.539062 0.359375 255 255 255
-0.179688 -0.414062 0.257812 255 255 255
-0.125000 -0.539062 0.359375 255 255 255
0.000000 -0.804688 0.343750 255 255 255
0.140625 -0.757812 0.367187 255 255 255
-0.140625 -0.757812 0.367187 255 255 255
0.000000 -0.976562 0.460937 255 255 255
0.164062 -0.945312 0.437500 255 255 255
-0.164062 -0.945312 0.437500 255 255 255
0.000000 -0.976562 0.460937 0 19 255
0.328125 -0.945312 0.523437 255 255 255
0.179688 -0.968750 0.554687 255 255 255
-0.164062 -0.945312 0.437500 0 19 255
-0.328125 -0.945312 0.523437 0 19 255
0.367188 -0.890625 0.531250 255 255 255
0.328125 -0.914062 0.398437 255 255 255
-0.328125 -0.914062 0.398437 255 255 255
-0.328125 -0.945312 0.523437 255 255 255
-0.367188 -0.890625 0.531250 255 255 255
0.289062 -0.710938 0.382812 0 19 255
-0.289062 -0.710938 0.382812 255 255 255
-0.351562 -0.695312 0.570312 255 255 255
0.289062 -0.710938 0.382812 255 255 255
0.234375 -0.351563 0.406250 0 19 255
0.250000 -0.500000 0.390625 0 19 255
0.179688 -0.414062 0.257812 0 19 255
-0.250000 -0.500000 0.390625 255 255 255
-0.312500 -0.437500 0.570312 255 255 255
0.218750 -0.281250 0.429688 0 19 255
-0.210938 -0.226563 0.468750 255 255 255
-0.218750 -0.281250 0.429688 255 255 255
-0.234375 -0.250000 0.554688 255 255 255
-0.234375 -0.351563 0.406250 255 255 255
-0.257812 -0.312500 0.554688 255 255 255
0.203125 -0.171875 0.500000 0 19 255
-0.203125 -0.171875 0.500000 255 255 255
0.000000 0.070313 -0.828125 255 255 255
0.335938 0.054688 -0.664062 255 255 255
0.000000 -0.195312 -0.671875 255 255 255
-0.343750 -0.148437 -0.539062 255 255 255
-0.335938 0.054688 -0.664062 255 255 255
0.343750 -0.148437 -0.539062 255 255 255
0.000000 -0.382812 -0.351563 255 255 255
-0.296875 -0.312500 -0.265625 255 255 255
0.296875 -0.312500 -0.265625 255 255 255
0.210938 -0.390625 0.164062 255 255 255
-0.210938 -0.390625 0.164062 255 255 255
0.000000 -0.460938 0.187500 255 255 255
0.179688 -0.414062 0.257812 255 255 255
0.234375 -0.351563 0.406250 255 255 255
0.218750 -0.281250 0.429688 255 255 255
0.773438 0.164062 0.375000 0 19 255
0.601562 -0.000000 0.414062 0 19 255
0.734375 -0.046875 0.070312 0 19 255
-0.734375 -0.046875 0.070312 0 19 255
-0.601562 -0.000000 0.414062 0 19 255
-0.773438 0.164062 0.375000 0 19 255
0.000000 0.562500 -0.851562 255 255 255
0.460938 0.437500 -0.703125 255 255 255
-0.460938 0.437500 -0.703125 255 255 255
0.000000 0.898438 0.289063 0 19 255
0.453125 0.851562 0.234375 0 19 255
0.000000 0.984375 -0.078125 0 19 255
-0.453125 0.929688 -0.070312 0 19 255
-0.453125 0.851562 0.234375 0 19 255
0.453125 0.929688 -0.070312 0 19 255
0.453125 0.867188 -0.382812 0 19 255
-0.453125 0.867188 -0.382812 0 19 255
0.000000 0.898438 -0.546875 255 255 255
0.453125 0.867188 -0.382812 255 255 255
-0.453125 0.867188 -0.382812 255 255 255
0.679688 0.453125 0.492188 0 19 255
0.726562 0.406250 0.335938 0 19 255
-0.726562 0.406250 0.335938 0 19 255
0.632812 0.453125 0.281250 0 19 255
0.796875 0.562500 0.125000 0 19 255
-0.796875 0.562500 0.125000 0 19 255
-0.632812 0.453125 0.281250 0 19 255
0.640625 0.703125 0.054688 0 19 255
0.796875 0.617188 -0.117187 0 19 255
-0.796875 0.617188 -0.117187 0 19 255
-0.640625 0.703125 0.054688 0 19 255
0.640625 0.750000 -0.195312 0 19 255
0.796875 0.539062 -0.359375 0 19 255
-0.796875 0.539062 -0.359375 255 255 255
-0.796875 0.617188 -0.117187 255 255 255
-0.640625 0.750000 -0.195312 255 255 255
0.773438 0.265625 -0.437500 255 255 255
0.617188 0.328125 -0.585938 255 255 255
0.796875 0.539062 -0.359375 255 255 255
-0.640625 0.679688 -0.445312 255 255 255
-0.617188 0.328125 -0.585938 255 255 255
0.640625 0.679688 -0.445312 255 255 255
-0.640625 0.750000 -0.195312 0 19 255
0.460938 0.523438 0.429688 0 19 255
-0.460938 0.523438 0.429688 0 19 255
0.000000 0.570312 0.570312 0 19 255
0.484375 0.554688 0.554688 255 255 255
0.335938 0.687500 0.593750 255 255 255
-0.484375 0.554688 0.554688 255 255 255
-0.335938 0.687500 0.593750 255 255 255
-0.109375 0.460937 0.609375 255 255 255
0.109375 0.460937 0.609375 0 19 255
-0.460938 0.523438 0.429688 255 255 255
0.000000 0.406250 0.601562 0 19 255
0.773438 0.164062 0.375000 255 255 255
0.726562 0.406250 0.335938 255 255 255
-0.851562 0.234375 0.054688 255 255 255
-0.726562 0.406250 0.335938 255 255 255
0.851562 0.234375 0.054688 0 19 255
0.859375 0.320312 -0.046875 0 19 255
-0.796875 0.562500 0.125000 255 255 255
-0.859375 0.320312 -0.046875 255 255 255
0.820312 0.328125 -0.203125 0 19 255
-0.820312 0.328125 -0.203125 255 255 255
0.773438 0.265625 -0.437500 0 19 255
0.210938 -0.390625 0.164062 0 19 255
0.296875 -0.312500 -0.265625 0 19 255
0.406250 -0.171875 0.148437 0 19 255
-0.429688 -0.195312 -0.210938 0 19 255
-0.296875 -0.312500 -0.265625 0 19 255
-0.406250 -0.171875 0.148437 0 19 255
0.593750 -0.125000 -0.164062 0 19 255
-0.593750 -0.125000 -0.164062 0 19 255
0.437500 -0.093750 0.468750 0 19 255
-0.437500 -0.093750 0.468750 0 19 255
0.210938 -0.226563 0.468750 0 19 255
-0.218750 -0.281250 0.429688 0 19 255
-0.210938 -0.226563 0.468750 0 19 255
-0.210938 -0.390625 0.164062 0 19 255
-0.203125 -0.171875 0.500000 0 19 255
0.640625 -0.007812 -0.429688 255 255 255
-0.484375 0.023438 -0.546875 255 255 255
-0.640625 -0.007812 -0.429688 255 255 255
0.593750 -0.125000 -0.164062 255 255 255
0.429688 -0.195312 -0.210938 255 255 255
-0.429688 -0.195312 -0.210938 255 255 255
0.484375 0.023438 -0.546875 255 255 255
1.023438 0.476562 -0.312500 0 19 255
0.890625 0.406250 -0.234375 0 19 255
1.015625 0.414062 -0.289062 0 19 255
-0.921875 0.359375 -0.218750 0 19 255
-0.890625 0.406250 -0.234375 0 19 255
-1.015625 0.414062 -0.289062 0 19 255
1.187500 0.437500 -0.390625 0 19 255
-1.187500 0.437500 -0.390625 0 19 255
-1.023438 0.476562 -0.312500 0 19 255
1.234375 0.507812 -0.421875 0 19 255
1.351562 0.320313 -0.421875 0 19 255
-1.265625 0.289063 -0.406250 0 19 255
-1.351562 0.320313 -0.421875 0 19 255
1.265625 0.289063 -0.406250 0 19 255
1.281250 0.054688 -0.429688 0 19 255
-1.210938 0.078125 -0.406250 0 19 255
-1.281250 0.054688 -0.429688 0 19 255
1.210938 0.078125 -0.406250 0 19 255
1.039062 -0.101562 -0.328125 0 19 255
-1.031250 -0.039062 -0.304688 0 19 255
-1.039062 -0.101562 -0.328125 0 19 255
1.031250 -0.039062 -0.304688 0 19 255
0.828125 -0.070312 -0.132812 0 19 255
-0.828125 -0.070312 -0.132812 0 19 255
1.039062 0.000000 -0.367188 0 19 255
0.882812 -0.023437 -0.210938 0 19 255
-0.882812 -0.023437 -0.210938 0 19 255
-1.039062 0.000000 -0.367188 0 19 255
1.187500 0.093750 -0.445312 0 19 255
-1.187500 0.093750 -0.445312 0 19 255
1.234375 0.250000 -0.445312 0 19 255
-1.234375 0.250000 -0.445312 0 19 255
1.171875 0.359375 -0.437500 0 19 255
-1.171875 0.359375 -0.437500 0 19 255
1.023438 0.343750 -0.359375 0 19 255
-1.023438 0.343750 -0.359375 0 19 255
0.921875 0.359375 -0.218750 0 19 255
0.945312 0.304688 -0.289062 0 19 255
-0.945312 0.304688 -0.289062 0 19 255
0.734375 -0.046875 0.070312 255 255 255
0.726562 0.000000 -0.070312 255 255 255
-0.718750 -0.023437 -0.171875 0 19 255
-0.726562 0.000000 -0.070312 0 19 255
0.773438 -0.140625 -0.125000 0 19 255
0.718750 -0.023437 -0.171875 0 19 255
-0.773438 -0.140625 -0.125000 0 19 255
0.851562 0.234375 0.054688 255 255 255
-0.726562 0.000000 -0.070312 255 255 255
-0.734375 -0.046875 0.070312 255 255 255
0.843750 0.289062 -0.210937 0 19 255
-0.843750 0.289062 -0.210937 0 19 255
-0.820312 0.328125 -0.203125 0 19 255
0.812500 -0.015625 -0.273438 0 19 255
-0.812500 -0.015625 -0.273438 0 19 255
0.843750 0.015625 -0.273438 0 19 255
0.718750 0.039063 -0.187500 0 19 255
-0.718750 0.039063 -0.187500 0 19 255
0.757812 0.093750 -0.273438 0 19 255
-0.843750 0.015625 -0.273438 0 19 255
-0.757812 0.093750 -0.273438 0 19 255
0.835938 0.171875 -0.273438 0 19 255
0.796875 0.203125 -0.210937 0 19 255
-0.718750 0.039063 -0.187500 255 255 255
-0.796875 0.203125 -0.210937 255 255 255
-0.757812 0.093750 -0.273438 255 255 255
0.890625 0.242188 -0.265625 0 19 255
-0.835938 0.171875 -0.273438 0 19 255
-0.796875 0.203125 -0.210937 0 19 255
-0.890625 0.242188 -0.265625 0 19 255
-0.843750 0.289062 -0.210937 255 255 255
0.859375 0.320312 -0.046875 255 255 255
0.796875 0.203125 -0.210937 255 255 255
0.718750 -0.023437 -0.171875 255 255 255
0.718750 0.039063 -0.187500 255 255 255
-0.718750 -0.023437 -0.171875 255 255 255
0.890625 0.234375 -0.320312 0 19 255
-0.890625 0.234375 -0.320312 255 255 255
-0.890625 0.242188 -0.265625 255 255 255
-0.945312 0.304688 -0.289062 255 255 255
-0.843750 0.171875 -0.320312 0 19 255
-0.890625 0.234375 -0.320312 0 19 255
0.835938 0.171875 -0.273438 255 255 255
0.757812 0.093750 -0.273438 255 255 255
0.765625 0.093750 -0.320312 255 255 255
-0.765625 0.093750 -0.320312 0 19 255
0.820312 0.085938 -0.273438 0 19 255
0.765625 0.093750 -0.320312 0 19 255
-0.828125 0.078125 -0.320312 255 255 255
-0.820312 0.085938 -0.273438 255 255 255
-0.765625 0.093750 -0.320312 255 255 255
0.820312 0.085938 -0.273438 255 255 255
0.843750 0.015625 -0.273438 255 255 255
0.828125 0.078125 -0.320312 255 255 255
-0.851562 0.015625 -0.320312 255 255 255
-0.843750 0.015625 -0.273438 255 255 255
0.812500 -0.015625 -0.273438 255 255 255
0.812500 -0.015625 -0.320312 255 255 255
-0.812500 -0.015625 -0.320312 255 255 255
-0.812500 -0.015625 -0.273438 255 255 255
0.882812 -0.015625 -0.265625 0 19 255
-0.882812 -0.015625 -0.265625 255 255 255
-0.882812 -0.023437 -0.210938 255 255 255
0.953125 0.289063 -0.343750 0 19 255
-0.953125 0.289063 -0.343750 0 19 255
1.039062 0.328125 -0.414062 0 19 255
-1.039062 0.328125 -0.414062 0 19 255
1.187500 0.343750 -0.484375 0 19 255
-1.187500 0.343750 -0.484375 0 19 255
1.187500 0.093750 -0.445312 255 255 255
1.234375 0.250000 -0.445312 255 255 255
1.210938 0.085938 -0.484375 255 255 255
-1.257812 0.242188 -0.492188 0 19 255
-1.210938 0.085938 -0.484375 0 19 255
1.046875 0.000000 -0.421875 0 19 255
-1.046875 0.000000 -0.421875 0 19 255
-1.046875 0.000000 -0.421875 255 255 255
-1.039062 0.000000 -0.367188 255 255 255
0.828125 0.078125 -0.320312 0 19 255
0.851562 0.015625 -0.320312 0 19 255
0.890625 0.109375 -0.328125 0 19 255
-0.937500 0.062500 -0.335938 0 19 255
-0.851562 0.015625 -0.320312 0 19 255
-0.890625 0.109375 -0.328125 0 19 255
0.937500 0.062500 -0.335938 0 19 255
0.960938 0.171875 -0.351562 0 19 255
-1.000000 0.125000 -0.367188 0 19 255
-0.960938 0.171875 -0.351562 0 19 255
1.000000 0.125000 -0.367188 0 19 255
1.054688 0.187500 -0.382812 0 19 255
-1.054688 0.187500 -0.382812 0 19 255
1.015625 0.234375 -0.375000 0 19 255
1.085938 0.273438 -0.390625 0 19 255
-1.109375 0.210938 -0.390625 0 19 255
-1.085938 0.273438 -0.390625 0 19 255
-1.015625 0.234375 -0.375000 0 19 255
0.843750 0.171875 -0.320312 0 19 255
-0.828125 0.078125 -0.320312 0 19 255
0.812500 -0.015625 -0.320312 0 19 255
-0.882812 -0.015625 -0.265625 0 19 255
1.210938 0.085938 -0.484375 0 19 255
1.257812 0.242188 -0.492188 0 19 255
1.109375 0.210938 -0.390625 0 19 255
0.789062 -0.125000 -0.328125 0 19 255
-0.789062 -0.125000 -0.328125 0 19 255
1.039062 -0.085937 -0.492188 0 19 255
-1.039062 -0.085937 -0.492188 0 19 255
1.367188 0.296875 -0.500000 0 19 255
-1.312500 0.054688 -0.531250 0 19 255
-1.367188 0.296875 -0.500000 0 19 255
1.250000 0.468750 -0.546875 0 19 255
-1.367188 0.296875 -0.500000 255 255 255
-1.351562 0.320313 -0.421875 255 255 255
-1.250000 0.468750 -0.546875 255 255 255
1.023438 0.437500 -0.484375 0 19 255
-1.250000 0.468750 -0.546875 0 19 255
-1.234375 0.507812 -0.421875 0 19 255
-1.023438 0.437500 -0.484375 0 19 255
0.859375 0.382813 -0.382812 0 19 255
-0.859375 0.382813 -0.382812 0 19 255
1.023438 0.437500 -0.484375 255 255 255
1.039062 -0.085937 -0.492188 255 255 255
0.859375 0.382813 -0.382812 255 255 255
-0.789062 -0.125000 -0.328125 255 255 255
-1.039062 -0.085937 -0.492188 255 255 255
-0.859375 0.382813 -0.382812 255 255 255
1.250000 0.468750 -0.546875 255 255 255
1.312500 0.054688 -0.531250 255 255 255
-1.312500 0.054688 -0.531250 255 255 255
-1.023438 0.437500 -0.484375 255 255 255
1.367188 0.296875 -0.500000 255 255 255
-0.890625 0.406250 -0.234375 255 255 255
0.789062 -0.125000 -0.328125 255 255 255
-0.773438 0.265625 -0.437500 255 255 255
-0.593750 -0.125000 -0.164062 255 255 255
0.625000 0.242187 0.562500 255 255 255
0.351562 -0.023438 0.617188 255 255 255
0.351562 0.031250 0.718750 255 255 255
0.546875 0.437500 0.578125 255 255 255
-0.546875 0.437500 0.578125 0 19 255
0.445312 0.335937 0.781250 255 255 255
0.226562 0.242187 0.820312 255 255 255
0.742188 0.375000 0.656250 1 20 255
0.085938 -0.289063 0.742188 255 255 255
-0.085938 -0.289063 0.742188 255 255 255
-0.039062 -0.125000 0.781250 255 255 255
0.000000 -0.875000 0.687500 255 255 255
0.000000 -0.890625 0.687500 255 255 255
0.046875 -0.867188 0.687500 255 255 255
-0.046875 -0.867188 0.687500 255 255 255
-0.046875 -0.851562 0.632812 255 255 255
-0.093750 -0.812500 0.640625 255 255 255
0.093750 -0.812500 0.640625 255 255 255
0.843750 0.289062 -0.210937 255 255 255
0.335938 0.406250 0.750000 0 19 255
0.554688 0.281250 0.671875 0 19 255
0.460938 0.117187 0.703125 0 19 255
-0.460938 0.117187 0.703125 0 19 255
-0.375000 0.085937 0.726562 0 19 255
0.203125 0.171875 0.750000 255 255 255
0.187500 0.156250 0.773438 255 255 255
0.242188 0.125000 0.757812 255 255 255
-0.203125 0.171875 0.750000 255 255 255
-0.187500 0.156250 0.773438 255 255 255
0.234375 0.359375 0.757812 0 19 255
-0.195312 0.296875 0.757812 255 255 255
-0.195312 0.226562 0.750000 255 255 255
-0.179688 0.296875 0.781250 255 255 255
-0.859375 0.429687 0.593750 255 255 255
-0.179688 -0.968750 0.554687 255 255 255
0.328125 -0.914062 0.398437 0 19 255
0.250000 -0.500000 0.390625 255 255 255
0.210938 -0.226563 0.468750 255 255 255
0.234375 -0.250000 0.554688 255 255 255
0.203125 -0.171875 0.500000 255 255 255
-0.203125 -0.187500 0.562500 255 255 255
-0.851562 0.234375 0.054688 0 19 255
0.000000 0.898438 -0.546875 0 19 255
0.640625 0.679688 -0.445312 0 19 255
-0.640625 0.679688 -0.445312 0 19 255
-0.195312 0.664062 0.617188 255 255 255
0.429688 -0.195312 -0.210938 0 19 255
0.726562 0.000000 -0.070312 0 19 255
-0.828125 -0.070312 -0.132812 255 255 255
-0.820312 0.085938 -0.273438 0 19 255
-0.109375 -0.132813 0.781250 255 255 255
0.843750 0.171875 -0.320312 255 255 255
0.890625 0.234375 -0.320312 255 255 255
0.851562 0.015625 -0.320312 255 255 255
1.257812 0.242188 -0.492188 255 255 255
1.187500 0.343750 -0.484375 255 255 255
-1.257812 0.242188 -0.492188 255 255 255
-1.187500 0.343750 -0.484375 255 255 255
-1.234375 0.250000 -0.445312 255 255 255
-1.187500 0.093750 -0.445312 255 255 255
-1.210938 0.085938 -0.484375 255 255 255
1.046875 0.000000 -0.421875 255 255 255
-0.812500 -0.015625 -0.320312 0 19 255
1.312500 0.054688 -0.531250 0 19 255
-1.234375 0.507812 -0.421875 255 255 255
3 0 1 2
3 3 4 5
3 6 7 8
3 9 10 11
3 2 12 13
3 14 15 10
3 1 16 12
3 17 18 4
3 16 19 20
3 21 22 18
3 12 20 23
3 24 25 15
3 26 27 28
3 29 30 24
3 20 19 31
3 21 32 22
3 33 34 35
3 36 37 38
3 27 39 40
3 41 42 29
3 39 43 44
3 45 46 41
3 34 47 35
3 48 49 36
3 47 50 51
3 52 53 48
3 43 54 55
3 56 57 45
3 58 59 60
3 61 11 56
3 50 0 58
3 62 5 52
3 63 64 65
3 66 67 68
3 50 47 69
3 70 49 71
3 72 73 74
3 75 37 70
3 73 76 77
3 78 79 80
3 76 81 82
3 83 84 79
3 81 85 86
3 87 88 84
3 85 89 90
3 91 92 88
3 89 63 65
3 68 93 92
3 94 95 96
3 97 98 99
3 100 95 94
3 99 98 101
3 94 102 100
3 101 103 99
3 94 104 102
3 103 105 99
3 94 106 104
3 105 75 99
3 94 107 106
3 75 70 99
3 94 69 107
3 70 71 99
3 94 96 69
3 71 97 99
3 108 109 110
3 111 112 110
3 113 114 108
3 112 115 116
3 117 118 114
3 115 119 120
3 121 122 118
3 119 123 124
3 125 126 122
3 123 127 128
3 129 130 131
3 132 133 134
3 130 135 131
3 136 137 132
3 135 138 139
3 140 141 137
3 138 142 139
3 143 144 140
3 142 145 146
3 147 148 143
3 145 149 150
3 151 152 147
3 149 153 154
3 155 156 152
3 153 157 154
3 158 159 155
3 157 160 161
3 162 163 158
3 160 164 165
3 166 164 162
3 167 168 165
3 158 169 162
3 168 170 154
3 155 171 169
3 172 173 170
3 155 151 171
3 174 150 172
3 151 147 175
3 176 146 174
3 147 143 177
3 178 139 176
3 143 140 179
3 180 181 178
3 140 136 182
3 183 131 180
3 136 132 184
3 185 186 183
3 132 187 188
3 185 189 190
3 190 191 192
3 167 165 193
3 166 162 194
3 193 166 195
3 195 166 194
3 190 189 195
3 196 191 195
3 197 198 111
3 111 198 199
3 200 197 109
3 112 199 201
3 202 200 118
3 115 201 119
3 126 203 204
3 205 206 127
3 202 118 122
3 123 119 207
3 208 209 203
3 210 209 206
3 204 203 211
3 210 206 211
3 212 202 211
3 205 207 211
3 213 214 215
3 216 217 218
3 213 219 214
3 218 217 220
3 221 222 223
3 224 225 226
3 227 228 229
3 225 230 221
3 209 208 231
3 232 233 231
3 231 234 235
3 236 232 235
3 230 237 238
3 239 237 230
3 222 238 240
3 241 239 225
3 242 240 243
3 244 241 245
3 243 246 247
3 236 244 245
3 237 246 238
3 241 244 239
3 237 235 247
3 236 235 237
3 221 223 186
3 187 226 221
3 223 248 249
3 250 251 226
3 248 208 249
3 252 233 250
3 208 203 253
3 127 206 252
3 125 254 126
3 252 255 127
3 254 256 253
3 250 257 252
3 129 186 249
3 250 187 134
3 202 212 258
3 259 212 260
3 200 202 258
3 260 207 201
3 197 200 261
3 262 201 199
3 198 197 263
3 264 199 198
3 265 263 266
3 267 264 266
3 263 261 268
3 269 262 264
3 270 271 272
3 273 274 275
3 258 259 276
3 277 259 278
3 277 266 279
3 267 266 277
3 276 279 268
3 269 267 278
3 280 189 281
3 282 191 196
3 193 280 283
3 284 196 194
3 167 193 285
3 286 194 287
3 189 185 281
3 288 192 282
3 185 183 289
3 290 188 192
3 183 180 291
3 292 184 188
3 180 178 293
3 294 182 184
3 178 176 295
3 296 179 182
3 176 174 295
3 297 177 296
3 174 172 298
3 299 175 297
3 172 170 300
3 301 171 175
3 170 168 302
3 303 169 171
3 168 167 285
3 287 304 169
3 302 285 305
3 306 287 307
3 300 302 305
3 307 303 301
3 308 300 309
3 310 301 311
3 298 308 312
3 311 299 313
3 295 298 312
3 313 297 296
3 293 295 314
3 315 296 316
3 291 293 314
3 316 294 292
3 289 291 317
3 318 319 320
3 321 289 322
3 320 323 324
3 281 321 322
3 325 288 282
3 285 326 327
3 328 286 287
3 326 283 329
3 330 284 286
3 283 281 331
3 332 282 284
3 333 334 335
3 336 163 164
3 334 337 338
3 339 159 163
3 157 153 340
3 341 156 339
3 153 149 342
3 343 152 341
3 149 145 344
3 345 148 343
3 145 142 346
3 347 144 148
3 348 349 350
3 351 352 353
3 349 354 355
3 356 357 352
3 354 358 359
3 360 361 357
3 362 363 364
3 365 363 366
3 367 362 368
3 366 362 369
3 370 367 371
3 369 367 372
3 108 110 373
3 373 110 116
3 374 375 371
3 376 116 377
3 378 374 379
3 380 381 382
3 121 117 383
3 384 382 385
3 386 368 364
3 366 369 384
3 386 379 368
3 372 380 369
3 387 388 389
3 366 390 365
3 125 121 388
3 390 385 391
3 254 392 256
3 393 394 395
3 125 387 254
3 394 396 397
3 129 256 398
3 393 395 399
3 129 398 130
3 360 399 361
3 400 401 402
3 403 404 402
3 402 405 406
3 407 403 406
3 406 408 409
3 410 407 406
3 411 409 412
3 365 410 411
3 413 412 414
3 410 365 394
3 415 416 417
3 418 419 420
3 421 422 400
3 404 423 400
3 424 425 426
3 427 428 426
3 426 429 430
3 431 427 426
3 432 433 422
3 423 434 432
3 435 346 436
3 437 347 345
3 438 436 439
3 440 437 441
3 442 439 443
3 444 440 445
3 446 443 447
3 448 449 450
3 451 452 453
3 454 455 448
3 422 433 456
3 454 434 423
3 430 429 446
3 457 427 431
3 429 425 442
3 445 428 427
3 425 458 438
3 441 459 428
3 344 435 458
3 441 345 459
3 460 458 424
3 428 459 424
3 461 335 462
3 463 464 465
3 466 344 458
3 467 463 465
3 468 466 460
3 460 336 468
3 350 469 470
3 471 351 472
3 473 474 439
3 475 476 471
3 474 477 443
3 449 478 476
3 479 447 477
3 449 448 478
3 480 481 482
3 483 484 485
3 417 482 486
3 483 485 487
3 416 488 482
3 485 489 419
3 488 490 392
3 491 492 489
3 392 480 482
3 485 493 491
3 488 398 490
3 492 494 489
3 451 495 452
3 496 497 455
3 422 452 401
3 496 455 404
3 498 499 495
3 496 500 497
3 408 405 499
3 496 403 500
3 401 501 405
3 403 496 404
3 502 503 504
3 505 506 507
3 502 504 508
3 509 507 510
3 511 508 512
3 513 509 514
3 512 515 516
3 517 513 518
3 516 519 520
3 521 517 522
3 520 523 524
3 525 521 522
3 523 526 527
3 528 529 521
3 519 530 526
3 529 531 517
3 515 532 519
3 531 533 517
3 508 534 515
3 533 535 513
3 504 536 508
3 535 537 509
3 504 538 539
3 540 505 507
3 541 498 542
3 543 487 544
3 486 545 546
3 525 547 543
3 548 541 542
3 549 550 471
3 477 551 538
3 505 552 553
3 524 527 554
3 555 528 525
3 556 557 554
3 543 558 555
3 559 557 556
3 560 558 561
3 562 563 559
3 564 565 566
3 551 563 567
3 568 569 570
3 538 551 539
3 570 552 540
3 477 474 551
3 478 571 476
3 572 542 573
3 564 549 565
3 542 574 575
3 564 576 549
3 539 567 577
3 578 579 580
3 567 562 577
3 581 568 582
3 583 584 585
3 586 561 568
3 559 587 588
3 589 590 591
3 592 593 594
3 595 596 589
3 593 597 598
3 599 600 596
3 554 527 601
3 602 603 600
3 536 539 604
3 605 540 537
3 534 536 606
3 607 537 535
3 532 534 608
3 609 535 533
3 610 611 612
3 613 533 614
3 526 530 615
3 614 531 616
3 527 526 601
3 617 618 602
3 619 620 621
3 622 623 624
3 621 625 626
3 627 622 628
3 626 629 630
3 631 627 628
3 632 630 633
3 634 631 635
3 606 604 632
3 636 605 607
3 577 626 604
3 636 628 605
3 577 637 626
3 624 581 628
3 619 621 637
3 581 624 638
3 639 601 620
3 622 640 623
3 615 629 625
3 622 627 616
3 641 630 615
3 627 631 616
3 642 643 641
3 631 634 614
3 608 633 643
3 634 635 609
3 606 633 608
3 609 635 607
3 520 545 644
3 645 547 522
3 516 520 646
3 647 522 518
3 512 516 648
3 649 518 650
3 511 512 651
3 652 653 654
3 502 511 655
3 656 657 658
3 503 502 659
3 658 510 660
3 661 662 663
3 664 665 666
3 661 667 668
3 669 654 670
3 667 671 668
3 669 652 654
3 479 477 659
3 672 478 666
3 451 663 673
3 664 666 674
3 498 495 673
3 664 497 675
3 59 0 2
3 62 3 5
3 676 6 8
3 61 9 11
3 8 7 677
3 9 14 10
3 2 1 12
3 3 17 4
3 12 16 20
3 17 21 18
3 677 678 28
3 14 24 15
3 27 40 28
3 30 25 24
3 19 33 31
3 31 33 35
3 32 36 38
3 39 44 40
3 42 30 29
3 43 55 44
3 46 42 41
3 47 51 35
3 49 37 36
3 50 58 51
3 53 49 48
3 54 679 55
3 57 46 45
3 6 676 679
3 62 52 680
3 0 59 58
3 5 53 52
3 64 681 65
3 67 93 68
3 72 74 681
3 49 53 71
3 73 77 74
3 37 49 70
3 76 682 77
3 38 37 75
3 682 76 82
3 78 83 79
3 82 81 86
3 83 87 84
3 86 85 90
3 87 91 88
3 90 89 65
3 91 68 92
3 109 111 110
3 112 116 110
3 114 109 108
3 115 377 116
3 113 117 114
3 377 115 120
3 117 121 118
3 120 119 124
3 121 125 122
3 124 123 128
3 186 129 131
3 187 132 134
3 135 181 131
3 137 133 132
3 181 135 139
3 136 140 137
3 142 146 139
3 144 141 140
3 145 150 146
3 148 144 143
3 149 173 150
3 152 148 147
3 173 149 154
3 151 155 152
3 157 161 154
3 159 156 155
3 160 165 161
3 163 159 158
3 164 166 165
3 164 163 162
3 168 161 165
3 169 304 162
3 161 168 154
3 158 155 169
3 173 154 170
3 151 175 171
3 150 173 172
3 147 177 175
3 683 150 174
3 143 179 177
3 139 146 176
3 140 182 179
3 181 139 178
3 136 184 182
3 131 181 180
3 132 188 184
3 335 338 462
3 186 131 183
3 186 185 190
3 187 190 192
3 165 166 193
3 162 304 194
3 280 193 195
3 196 195 194
3 189 280 195
3 191 190 195
3 109 197 111
3 112 111 199
3 114 200 109
3 115 112 201
3 200 114 118
3 201 207 119
3 122 126 204
3 123 205 127
3 204 202 122
3 205 123 207
3 209 210 203
3 209 233 206
3 203 210 211
3 206 205 211
3 202 204 211
3 207 212 211
3 684 213 215
3 685 216 218
3 32 38 22
3 223 242 243
3 222 242 223
3 686 229 220
3 230 222 221
3 228 227 229
3 208 234 231
3 233 209 231
3 234 247 235
3 232 231 235
3 222 230 238
3 225 239 230
3 242 222 240
3 224 241 225
3 240 246 243
3 241 224 245
3 234 243 247
3 232 236 245
3 246 240 238
3 244 237 239
3 246 237 247
3 244 236 237
3 190 221 186
3 190 187 221
3 186 223 249
3 187 250 226
3 208 253 249
3 233 251 250
3 203 126 253
3 206 233 252
3 254 253 126
3 255 128 127
3 256 249 253
3 257 255 252
3 256 129 249
3 257 250 134
3 212 259 258
3 212 207 260
3 261 200 258
3 262 260 201
3 263 197 261
3 264 262 199
3 687 688 689
3 687 690 688
3 263 279 266
3 264 265 266
3 279 263 268
3 691 692 690
3 693 270 272
3 269 278 262
3 259 277 276
3 259 260 278
3 276 277 279
3 278 267 277
3 283 280 281
3 284 282 196
3 326 193 283
3 286 284 194
3 193 326 285
3 194 304 287
3 185 321 281
3 192 191 282
3 321 185 289
3 288 290 192
3 289 183 291
3 290 292 188
3 291 180 293
3 292 294 184
3 293 178 295
3 294 296 182
3 174 298 295
3 177 179 296
3 172 308 298
3 175 177 297
3 308 172 300
3 299 301 175
3 300 170 302
3 301 303 171
3 302 168 285
3 303 287 169
3 287 303 307
3 572 573 694
3 695 300 305
3 310 307 301
3 300 695 309
3 301 299 311
3 308 309 312
3 299 297 313
3 696 295 312
3 315 313 296
3 295 696 314
3 296 294 316
3 697 291 314
3 698 316 292
3 291 697 317
3 292 290 699
3 289 317 322
3 290 288 325
3 700 701 702
3 703 324 704
3 705 285 327
3 306 328 287
3 327 326 329
3 706 707 708
3 329 283 331
3 330 332 284
3 468 164 466
3 468 336 164
3 335 334 338
3 336 339 163
3 153 342 340
3 156 159 339
3 149 344 342
3 152 156 341
3 145 435 344
3 148 152 343
3 435 145 346
3 345 347 148
3 349 469 350
3 352 709 353
3 469 349 355
3 351 356 352
3 355 354 359
3 356 360 357
3 363 412 364
3 363 362 366
3 362 364 368
3 362 367 369
3 367 368 371
3 367 370 372
3 371 375 370
3 372 370 710
3 379 374 371
3 380 372 381
3 383 117 711
3 384 380 382
3 388 121 383
3 390 384 385
3 712 386 364
3 390 366 384
3 379 371 368
3 380 384 369
3 712 364 412
3 390 396 365
3 387 125 388
3 396 390 391
3 414 713 714
3 394 397 395
3 387 392 254
3 396 391 397
3 714 713 715
3 395 716 399
3 715 359 358
3 494 134 133
3 401 405 402
3 404 400 402
3 405 408 406
3 403 402 406
3 411 406 409
3 411 410 406
3 363 411 412
3 363 365 411
3 412 409 414
3 365 396 394
3 473 415 417
3 717 418 420
3 422 401 400
3 423 421 400
3 425 429 426
3 428 424 426
3 718 426 430
3 718 431 426
3 421 432 422
3 421 423 432
3 438 435 436
3 441 437 345
3 442 438 439
3 445 440 441
3 446 442 443
3 457 444 445
3 719 446 447
3 454 448 450
3 452 456 453
3 455 674 448
3 452 422 456
3 455 454 423
3 719 430 446
3 720 457 431
3 446 429 442
3 457 445 427
3 442 425 438
3 445 441 428
3 435 438 458
3 345 343 459
3 458 425 424
3 459 460 424
3 464 721 465
3 285 705 305
3 460 466 458
3 460 459 336
3 415 473 436
3 351 353 472
3 436 473 439
3 472 475 471
3 439 474 443
3 475 449 476
3 447 443 477
3 448 674 478
3 481 722 482
3 484 493 485
3 482 722 486
3 485 418 487
3 417 416 482
3 418 485 419
3 482 488 392
3 485 491 489
3 495 501 452
3 497 674 455
3 452 501 401
3 455 423 404
3 499 501 495
3 500 675 497
3 405 501 499
3 403 407 500
3 503 538 504
3 506 510 507
3 511 502 508
3 657 509 510
3 508 515 512
3 509 657 514
3 515 519 516
3 513 514 518
3 519 523 520
3 517 518 522
3 545 520 524
3 547 525 522
3 524 523 527
3 525 528 521
3 523 519 526
3 521 529 517
3 532 530 519
3 533 513 517
3 534 532 515
3 535 509 513
3 536 534 508
3 537 507 509
3 536 504 539
3 537 540 507
3 486 546 723
3 675 550 549
3 545 524 546
3 547 487 543
3 572 548 542
3 476 549 471
3 503 477 538
3 506 505 553
3 546 524 554
3 576 600 724
3 557 546 554
3 558 560 555
3 587 559 556
3 725 560 561
3 573 575 584
3 569 568 561
3 563 562 567
3 569 552 570
3 551 567 539
3 552 505 540
3 571 565 476
3 217 726 220
3 542 575 573
3 549 476 565
3 604 539 577
3 605 582 540
3 583 727 728
3 568 570 582
3 727 583 585
3 581 586 568
3 587 619 588
3 590 566 591
3 556 620 619
3 596 590 589
3 729 593 598
3 595 599 596
3 639 554 601
3 599 602 600
3 606 536 604
3 607 605 537
3 608 534 606
3 609 607 535
3 730 611 731
3 732 733 734
3 611 730 612
3 734 735 736
3 610 612 737
3 531 529 616
3 526 615 601
3 618 603 602
3 620 625 621
3 623 638 624
3 625 629 626
3 622 624 628
3 632 626 630
3 636 631 628
3 630 643 633
3 631 636 635
3 633 606 632
3 635 636 607
3 626 632 604
3 628 582 605
3 637 621 626
3 581 582 628
3 588 619 637
3 586 581 638
3 601 625 620
3 640 738 623
3 601 615 625
3 640 622 616
3 630 629 615
3 631 614 616
3 643 630 641
3 634 613 614
3 642 608 643
3 613 634 609
3 646 520 644
3 647 645 522
3 739 516 646
3 649 647 518
3 516 739 648
3 518 514 650
3 512 648 651
3 653 740 654
3 511 651 655
3 657 510 658
3 502 655 659
3 510 506 660
3 662 673 663
3 665 670 666
3 662 661 668
3 665 669 670
3 477 503 659
3 478 674 666
3 495 451 673
3 497 664 674
3 545 486 644
3 547 645 487
3 187 192 188
