ply
format ascii 1.0
comment Created by Blender 2.69 (sub 0) - www.blender.org, source file: ''
element vertex 8
property float x
property float y
property float z
property uchar red
property uchar green
property uchar blue
element face 12
property list uchar uint vertex_indices
end_header
1.000000 -1.000000 -1.000000 255 0 0
1.000000 -1.000000 1.000000 255 0 0
-1.000000 -1.000000 1.000000 255 0 0
1.000000 1.000000 -0.999999 255 0 0
-1.000000 1.000000 -1.000000 255 0 0
0.999999 1.000000 1.000001 255 0 0
-1.000000 1.000000 1.000000 255 0 0
-1.000000 -1.000000 -1.000000 255 0 0
3 0 1 2
3 3 4 5
3 0 3 1
3 1 5 2
3 2 6 4
3 3 0 4
3 7 0 2
3 3 5 1
3 0 7 4
3 4 6 5
3 7 2 4
3 5 6 2
